G75*
G70*
%OFA0B0*%
%FSLAX24Y24*%
%IPPOS*%
%LPD*%
%AMOC8*
5,1,8,0,0,1.08239X$1,22.5*
%
%ADD10R,0.0715X0.0715*%
%ADD11C,0.0715*%
%ADD12C,0.0000*%
%ADD13OC8,0.0794*%
%ADD14OC8,0.0920*%
%ADD15C,0.0800*%
%ADD16OC8,0.0720*%
%ADD17C,0.0720*%
%ADD18C,0.0636*%
%ADD19C,0.0200*%
%ADD20C,0.0750*%
D10*
X022500Y011000D03*
X024500Y017500D03*
X009000Y018000D03*
D11*
X010000Y018000D03*
X011000Y018000D03*
X012000Y018000D03*
X013000Y018000D03*
X017500Y017500D03*
X018500Y017500D03*
X019500Y017500D03*
X020500Y017500D03*
X021500Y017500D03*
X022500Y017500D03*
X023500Y017500D03*
X023500Y012500D03*
X022500Y012500D03*
X021500Y012500D03*
X020500Y012500D03*
X019500Y012500D03*
X018500Y012500D03*
X017500Y012500D03*
X019500Y011000D03*
X020500Y011000D03*
X021500Y011000D03*
X024500Y012500D03*
X013000Y008270D03*
X012000Y008270D03*
X011000Y008270D03*
X010000Y008270D03*
X009000Y008270D03*
D12*
X000500Y000500D02*
X000500Y021500D01*
X025900Y021500D01*
X026500Y020900D01*
X026500Y016400D01*
X027500Y015400D01*
X027500Y002500D01*
X026500Y001500D01*
X026500Y000500D01*
X000500Y000500D01*
D13*
X011500Y001500D03*
X012500Y001500D03*
X013500Y001500D03*
X014500Y001500D03*
X015500Y001500D03*
X016500Y001500D03*
X017500Y001500D03*
X018500Y001500D03*
X020500Y001500D03*
X021500Y001500D03*
X022500Y001500D03*
X023500Y001500D03*
X024500Y001500D03*
X025500Y001500D03*
X025500Y020500D03*
X024500Y020500D03*
X023500Y020500D03*
X022500Y020500D03*
X021500Y020500D03*
X020500Y020500D03*
X019500Y020500D03*
X018500Y020500D03*
X016900Y020500D03*
X015900Y020500D03*
X014900Y020500D03*
X013900Y020500D03*
X012900Y020500D03*
X011900Y020500D03*
X010900Y020500D03*
X009900Y020500D03*
X008900Y020500D03*
X007900Y020500D03*
D14*
X006000Y018500D03*
X004500Y018500D03*
X015500Y017500D03*
X015000Y008000D03*
D15*
X023600Y007500D02*
X024400Y007500D01*
X024400Y006500D02*
X023600Y006500D01*
X023600Y005500D02*
X024400Y005500D01*
D16*
X022500Y006500D03*
X019500Y006500D03*
X017500Y007500D03*
X017500Y004500D03*
X017500Y003000D03*
X019500Y003000D03*
X025300Y010500D03*
D17*
X026700Y010500D03*
D18*
X018500Y019500D03*
X012000Y019000D03*
D19*
X012500Y019500D01*
X018500Y019500D01*
X017400Y014350D02*
X017400Y013650D01*
X014950Y011200D01*
X014950Y010850D01*
X014200Y011450D02*
X016400Y013650D01*
D20*
X016400Y013650D03*
X017400Y014350D03*
X014200Y011450D03*
X014950Y010850D03*
M02*
