G75*
G70*
%OFA0B0*%
%FSLAX24Y24*%
%IPPOS*%
%LPD*%
%AMOC8*
5,1,8,0,0,1.08239X$1,22.5*
%
%ADD10C,0.1340*%
%ADD11R,0.0795X0.0795*%
%ADD12C,0.0795*%
%ADD13C,0.0000*%
%ADD14OC8,0.0874*%
%ADD15OC8,0.0800*%
D10*
X006000Y001500D03*
X026500Y003500D03*
X026500Y014500D03*
X006500Y020500D03*
D11*
X016500Y017500D03*
X019500Y013500D03*
D12*
X020500Y013500D03*
X021500Y013500D03*
X022500Y013500D03*
X023500Y013500D03*
X015500Y017500D03*
X014500Y017500D03*
X013500Y017500D03*
X012500Y017500D03*
X011500Y017500D03*
X010500Y017500D03*
X009500Y017500D03*
X008500Y017500D03*
X019500Y003770D03*
X020500Y003770D03*
X021500Y003770D03*
X022500Y003770D03*
X023500Y003770D03*
D13*
X000500Y000500D02*
X000500Y021500D01*
X025900Y021500D01*
X026500Y020900D01*
X026500Y016400D01*
X027500Y015400D01*
X027500Y002500D01*
X026500Y001500D01*
X026500Y000500D01*
X000500Y000500D01*
D14*
X011500Y001500D03*
X012500Y001500D03*
X013500Y001500D03*
X014500Y001500D03*
X015500Y001500D03*
X016500Y001500D03*
X017500Y001500D03*
X018500Y001500D03*
X020500Y001500D03*
X021500Y001500D03*
X022500Y001500D03*
X023500Y001500D03*
X024500Y001500D03*
X025500Y001500D03*
X025500Y020500D03*
X024500Y020500D03*
X023500Y020500D03*
X022500Y020500D03*
X021500Y020500D03*
X020500Y020500D03*
X019500Y020500D03*
X018500Y020500D03*
X016900Y020500D03*
X015900Y020500D03*
X014900Y020500D03*
X013900Y020500D03*
X012900Y020500D03*
X011900Y020500D03*
X010900Y020500D03*
X009900Y020500D03*
X008900Y020500D03*
X007900Y020500D03*
D15*
X018500Y018500D03*
X018500Y017500D03*
X021500Y017500D03*
X021500Y018500D03*
M02*
