G75*
G70*
%OFA0B0*%
%FSLAX24Y24*%
%IPPOS*%
%LPD*%
%AMOC8*
5,1,8,0,0,1.08239X$1,22.5*
%
%ADD10R,0.0715X0.0715*%
%ADD11C,0.0715*%
%ADD12C,0.0000*%
%ADD13OC8,0.0794*%
%ADD14OC8,0.0720*%
%ADD15C,0.0500*%
%ADD16C,0.0200*%
D10*
X019500Y013500D03*
X016500Y017500D03*
D11*
X015500Y017500D03*
X014500Y017500D03*
X013500Y017500D03*
X012500Y017500D03*
X011500Y017500D03*
X010500Y017500D03*
X009500Y017500D03*
X008500Y017500D03*
X020500Y013500D03*
X021500Y013500D03*
X022500Y013500D03*
X023500Y013500D03*
X023500Y003770D03*
X022500Y003770D03*
X021500Y003770D03*
X020500Y003770D03*
X019500Y003770D03*
D12*
X000500Y000500D02*
X000500Y021500D01*
X025900Y021500D01*
X026500Y020900D01*
X026500Y016400D01*
X027500Y015400D01*
X027500Y002500D01*
X026500Y001500D01*
X026500Y000500D01*
X000500Y000500D01*
D13*
X011500Y001500D03*
X012500Y001500D03*
X013500Y001500D03*
X014500Y001500D03*
X015500Y001500D03*
X016500Y001500D03*
X017500Y001500D03*
X018500Y001500D03*
X020500Y001500D03*
X021500Y001500D03*
X022500Y001500D03*
X023500Y001500D03*
X024500Y001500D03*
X025500Y001500D03*
X025500Y020500D03*
X024500Y020500D03*
X023500Y020500D03*
X022500Y020500D03*
X021500Y020500D03*
X020500Y020500D03*
X019500Y020500D03*
X018500Y020500D03*
X016900Y020500D03*
X015900Y020500D03*
X014900Y020500D03*
X013900Y020500D03*
X012900Y020500D03*
X011900Y020500D03*
X010900Y020500D03*
X009900Y020500D03*
X008900Y020500D03*
X007900Y020500D03*
D14*
X018500Y018500D03*
X018500Y017500D03*
X021500Y017500D03*
X021500Y018500D03*
D15*
X020800Y014350D02*
X021500Y013650D01*
X021500Y013500D01*
X021450Y013300D01*
X017650Y009500D01*
X017650Y001700D01*
X017500Y001500D01*
X016500Y001500D01*
X015500Y001500D02*
X015500Y013500D01*
X013350Y013500D01*
X009500Y017350D01*
X009500Y017500D01*
X010500Y017500D02*
X010500Y017350D01*
X013500Y014350D01*
X020800Y014350D01*
X019500Y013500D02*
X015500Y013500D01*
D16*
X017800Y016800D02*
X012200Y016800D01*
X011500Y017500D01*
X012500Y017500D02*
X013500Y018500D01*
X018500Y018500D01*
X019200Y018250D02*
X019200Y019800D01*
X018500Y020500D01*
X020800Y019800D02*
X021500Y020500D01*
X020800Y019800D02*
X020800Y017250D01*
X024200Y013850D01*
X024200Y013250D01*
X022500Y011550D01*
X022500Y003770D01*
X021500Y003770D02*
X021500Y002500D01*
X022500Y001500D01*
X021500Y001500D02*
X020500Y002500D01*
X020500Y003770D01*
X019500Y003770D02*
X019500Y002500D01*
X020500Y001500D01*
X022500Y013500D02*
X022500Y014950D01*
X019200Y018250D01*
X018500Y017500D02*
X017800Y016800D01*
X021500Y017500D02*
X023500Y019500D01*
X023500Y020500D01*
X022500Y020500D02*
X021500Y019500D01*
X021500Y018500D01*
M02*
