G75*
G70*
%OFA0B0*%
%FSLAX24Y24*%
%IPPOS*%
%LPD*%
%AMOC8*
5,1,8,0,0,1.08239X$1,22.5*
%
%ADD10C,0.0000*%
%ADD11C,0.0050*%
%ADD12C,0.0040*%
%ADD13C,0.0030*%
%ADD14C,0.0060*%
%ADD15C,0.0020*%
%ADD16C,0.0070*%
%ADD17R,0.0350X0.0500*%
%ADD18C,0.0120*%
%ADD19C,0.0010*%
D10*
X000500Y000500D02*
X000500Y021500D01*
X025900Y021500D01*
X026500Y020900D01*
X026500Y016400D01*
X027500Y015400D01*
X027500Y002500D01*
X026500Y001500D01*
X026500Y000500D01*
X000500Y000500D01*
X005370Y001500D02*
X005372Y001550D01*
X005378Y001600D01*
X005388Y001649D01*
X005402Y001697D01*
X005419Y001744D01*
X005440Y001789D01*
X005465Y001833D01*
X005493Y001874D01*
X005525Y001913D01*
X005559Y001950D01*
X005596Y001984D01*
X005636Y002014D01*
X005678Y002041D01*
X005722Y002065D01*
X005768Y002086D01*
X005815Y002102D01*
X005863Y002115D01*
X005913Y002124D01*
X005962Y002129D01*
X006013Y002130D01*
X006063Y002127D01*
X006112Y002120D01*
X006161Y002109D01*
X006209Y002094D01*
X006255Y002076D01*
X006300Y002054D01*
X006343Y002028D01*
X006384Y001999D01*
X006423Y001967D01*
X006459Y001932D01*
X006491Y001894D01*
X006521Y001854D01*
X006548Y001811D01*
X006571Y001767D01*
X006590Y001721D01*
X006606Y001673D01*
X006618Y001624D01*
X006626Y001575D01*
X006630Y001525D01*
X006630Y001475D01*
X006626Y001425D01*
X006618Y001376D01*
X006606Y001327D01*
X006590Y001279D01*
X006571Y001233D01*
X006548Y001189D01*
X006521Y001146D01*
X006491Y001106D01*
X006459Y001068D01*
X006423Y001033D01*
X006384Y001001D01*
X006343Y000972D01*
X006300Y000946D01*
X006255Y000924D01*
X006209Y000906D01*
X006161Y000891D01*
X006112Y000880D01*
X006063Y000873D01*
X006013Y000870D01*
X005962Y000871D01*
X005913Y000876D01*
X005863Y000885D01*
X005815Y000898D01*
X005768Y000914D01*
X005722Y000935D01*
X005678Y000959D01*
X005636Y000986D01*
X005596Y001016D01*
X005559Y001050D01*
X005525Y001087D01*
X005493Y001126D01*
X005465Y001167D01*
X005440Y001211D01*
X005419Y001256D01*
X005402Y001303D01*
X005388Y001351D01*
X005378Y001400D01*
X005372Y001450D01*
X005370Y001500D01*
X025870Y003500D02*
X025872Y003550D01*
X025878Y003600D01*
X025888Y003649D01*
X025902Y003697D01*
X025919Y003744D01*
X025940Y003789D01*
X025965Y003833D01*
X025993Y003874D01*
X026025Y003913D01*
X026059Y003950D01*
X026096Y003984D01*
X026136Y004014D01*
X026178Y004041D01*
X026222Y004065D01*
X026268Y004086D01*
X026315Y004102D01*
X026363Y004115D01*
X026413Y004124D01*
X026462Y004129D01*
X026513Y004130D01*
X026563Y004127D01*
X026612Y004120D01*
X026661Y004109D01*
X026709Y004094D01*
X026755Y004076D01*
X026800Y004054D01*
X026843Y004028D01*
X026884Y003999D01*
X026923Y003967D01*
X026959Y003932D01*
X026991Y003894D01*
X027021Y003854D01*
X027048Y003811D01*
X027071Y003767D01*
X027090Y003721D01*
X027106Y003673D01*
X027118Y003624D01*
X027126Y003575D01*
X027130Y003525D01*
X027130Y003475D01*
X027126Y003425D01*
X027118Y003376D01*
X027106Y003327D01*
X027090Y003279D01*
X027071Y003233D01*
X027048Y003189D01*
X027021Y003146D01*
X026991Y003106D01*
X026959Y003068D01*
X026923Y003033D01*
X026884Y003001D01*
X026843Y002972D01*
X026800Y002946D01*
X026755Y002924D01*
X026709Y002906D01*
X026661Y002891D01*
X026612Y002880D01*
X026563Y002873D01*
X026513Y002870D01*
X026462Y002871D01*
X026413Y002876D01*
X026363Y002885D01*
X026315Y002898D01*
X026268Y002914D01*
X026222Y002935D01*
X026178Y002959D01*
X026136Y002986D01*
X026096Y003016D01*
X026059Y003050D01*
X026025Y003087D01*
X025993Y003126D01*
X025965Y003167D01*
X025940Y003211D01*
X025919Y003256D01*
X025902Y003303D01*
X025888Y003351D01*
X025878Y003400D01*
X025872Y003450D01*
X025870Y003500D01*
X029250Y006500D02*
X029252Y006550D01*
X029258Y006600D01*
X029268Y006650D01*
X029281Y006698D01*
X029298Y006746D01*
X029319Y006792D01*
X029343Y006836D01*
X029371Y006878D01*
X029402Y006918D01*
X029436Y006955D01*
X029473Y006990D01*
X029512Y007021D01*
X029553Y007050D01*
X029597Y007075D01*
X029643Y007097D01*
X029690Y007115D01*
X029738Y007129D01*
X029787Y007140D01*
X029837Y007147D01*
X029887Y007150D01*
X029938Y007149D01*
X029988Y007144D01*
X030038Y007135D01*
X030086Y007123D01*
X030134Y007106D01*
X030180Y007086D01*
X030225Y007063D01*
X030268Y007036D01*
X030308Y007006D01*
X030346Y006973D01*
X030381Y006937D01*
X030414Y006898D01*
X030443Y006857D01*
X030469Y006814D01*
X030492Y006769D01*
X030511Y006722D01*
X030526Y006674D01*
X030538Y006625D01*
X030546Y006575D01*
X030550Y006525D01*
X030550Y006475D01*
X030546Y006425D01*
X030538Y006375D01*
X030526Y006326D01*
X030511Y006278D01*
X030492Y006231D01*
X030469Y006186D01*
X030443Y006143D01*
X030414Y006102D01*
X030381Y006063D01*
X030346Y006027D01*
X030308Y005994D01*
X030268Y005964D01*
X030225Y005937D01*
X030180Y005914D01*
X030134Y005894D01*
X030086Y005877D01*
X030038Y005865D01*
X029988Y005856D01*
X029938Y005851D01*
X029887Y005850D01*
X029837Y005853D01*
X029787Y005860D01*
X029738Y005871D01*
X029690Y005885D01*
X029643Y005903D01*
X029597Y005925D01*
X029553Y005950D01*
X029512Y005979D01*
X029473Y006010D01*
X029436Y006045D01*
X029402Y006082D01*
X029371Y006122D01*
X029343Y006164D01*
X029319Y006208D01*
X029298Y006254D01*
X029281Y006302D01*
X029268Y006350D01*
X029258Y006400D01*
X029252Y006450D01*
X029250Y006500D01*
X025870Y014500D02*
X025872Y014550D01*
X025878Y014600D01*
X025888Y014649D01*
X025902Y014697D01*
X025919Y014744D01*
X025940Y014789D01*
X025965Y014833D01*
X025993Y014874D01*
X026025Y014913D01*
X026059Y014950D01*
X026096Y014984D01*
X026136Y015014D01*
X026178Y015041D01*
X026222Y015065D01*
X026268Y015086D01*
X026315Y015102D01*
X026363Y015115D01*
X026413Y015124D01*
X026462Y015129D01*
X026513Y015130D01*
X026563Y015127D01*
X026612Y015120D01*
X026661Y015109D01*
X026709Y015094D01*
X026755Y015076D01*
X026800Y015054D01*
X026843Y015028D01*
X026884Y014999D01*
X026923Y014967D01*
X026959Y014932D01*
X026991Y014894D01*
X027021Y014854D01*
X027048Y014811D01*
X027071Y014767D01*
X027090Y014721D01*
X027106Y014673D01*
X027118Y014624D01*
X027126Y014575D01*
X027130Y014525D01*
X027130Y014475D01*
X027126Y014425D01*
X027118Y014376D01*
X027106Y014327D01*
X027090Y014279D01*
X027071Y014233D01*
X027048Y014189D01*
X027021Y014146D01*
X026991Y014106D01*
X026959Y014068D01*
X026923Y014033D01*
X026884Y014001D01*
X026843Y013972D01*
X026800Y013946D01*
X026755Y013924D01*
X026709Y013906D01*
X026661Y013891D01*
X026612Y013880D01*
X026563Y013873D01*
X026513Y013870D01*
X026462Y013871D01*
X026413Y013876D01*
X026363Y013885D01*
X026315Y013898D01*
X026268Y013914D01*
X026222Y013935D01*
X026178Y013959D01*
X026136Y013986D01*
X026096Y014016D01*
X026059Y014050D01*
X026025Y014087D01*
X025993Y014126D01*
X025965Y014167D01*
X025940Y014211D01*
X025919Y014256D01*
X025902Y014303D01*
X025888Y014351D01*
X025878Y014400D01*
X025872Y014450D01*
X025870Y014500D01*
X005870Y020500D02*
X005872Y020550D01*
X005878Y020600D01*
X005888Y020649D01*
X005902Y020697D01*
X005919Y020744D01*
X005940Y020789D01*
X005965Y020833D01*
X005993Y020874D01*
X006025Y020913D01*
X006059Y020950D01*
X006096Y020984D01*
X006136Y021014D01*
X006178Y021041D01*
X006222Y021065D01*
X006268Y021086D01*
X006315Y021102D01*
X006363Y021115D01*
X006413Y021124D01*
X006462Y021129D01*
X006513Y021130D01*
X006563Y021127D01*
X006612Y021120D01*
X006661Y021109D01*
X006709Y021094D01*
X006755Y021076D01*
X006800Y021054D01*
X006843Y021028D01*
X006884Y020999D01*
X006923Y020967D01*
X006959Y020932D01*
X006991Y020894D01*
X007021Y020854D01*
X007048Y020811D01*
X007071Y020767D01*
X007090Y020721D01*
X007106Y020673D01*
X007118Y020624D01*
X007126Y020575D01*
X007130Y020525D01*
X007130Y020475D01*
X007126Y020425D01*
X007118Y020376D01*
X007106Y020327D01*
X007090Y020279D01*
X007071Y020233D01*
X007048Y020189D01*
X007021Y020146D01*
X006991Y020106D01*
X006959Y020068D01*
X006923Y020033D01*
X006884Y020001D01*
X006843Y019972D01*
X006800Y019946D01*
X006755Y019924D01*
X006709Y019906D01*
X006661Y019891D01*
X006612Y019880D01*
X006563Y019873D01*
X006513Y019870D01*
X006462Y019871D01*
X006413Y019876D01*
X006363Y019885D01*
X006315Y019898D01*
X006268Y019914D01*
X006222Y019935D01*
X006178Y019959D01*
X006136Y019986D01*
X006096Y020016D01*
X006059Y020050D01*
X006025Y020087D01*
X005993Y020126D01*
X005965Y020167D01*
X005940Y020211D01*
X005919Y020256D01*
X005902Y020303D01*
X005888Y020351D01*
X005878Y020400D01*
X005872Y020450D01*
X005870Y020500D01*
D11*
X007690Y018635D02*
X014310Y018635D01*
X014310Y007650D01*
X007690Y007650D01*
X007690Y018635D01*
X015125Y018475D02*
X015425Y018475D01*
X015275Y018475D02*
X015275Y018025D01*
X015585Y018025D02*
X015585Y018475D01*
X015811Y018475D01*
X015886Y018400D01*
X015886Y018250D01*
X015811Y018175D01*
X015585Y018175D01*
X016046Y018250D02*
X016346Y018250D01*
X016271Y018025D02*
X016271Y018475D01*
X016046Y018250D01*
X017000Y018000D02*
X025000Y018000D01*
X025000Y012000D01*
X017000Y012000D01*
X017000Y018000D01*
X023879Y009375D02*
X023804Y009300D01*
X023804Y009000D01*
X023879Y008925D01*
X024029Y008925D01*
X024104Y009000D01*
X024265Y009000D02*
X024340Y008925D01*
X024490Y008925D01*
X024565Y009000D01*
X024565Y009075D01*
X024490Y009150D01*
X024415Y009150D01*
X024490Y009150D02*
X024565Y009225D01*
X024565Y009300D01*
X024490Y009375D01*
X024340Y009375D01*
X024265Y009300D01*
X024104Y009300D02*
X024029Y009375D01*
X023879Y009375D01*
X020786Y007450D02*
X020711Y007525D01*
X020560Y007525D01*
X020485Y007450D01*
X020325Y007450D02*
X020325Y007300D01*
X020250Y007225D01*
X020025Y007225D01*
X020025Y007075D02*
X020025Y007525D01*
X020250Y007525D01*
X020325Y007450D01*
X020175Y007225D02*
X020325Y007075D01*
X020485Y007075D02*
X020786Y007375D01*
X020786Y007450D01*
X020786Y007075D02*
X020485Y007075D01*
X016925Y005711D02*
X016925Y005560D01*
X016850Y005485D01*
X016925Y005325D02*
X016775Y005175D01*
X016775Y005250D02*
X016775Y005025D01*
X016925Y005025D02*
X016475Y005025D01*
X016475Y005250D01*
X016550Y005325D01*
X016700Y005325D01*
X016775Y005250D01*
X016550Y005485D02*
X016475Y005560D01*
X016475Y005711D01*
X016550Y005786D01*
X016625Y005786D01*
X016700Y005711D01*
X016775Y005786D01*
X016850Y005786D01*
X016925Y005711D01*
X016700Y005711D02*
X016700Y005636D01*
X018250Y004125D02*
X018175Y004050D01*
X018175Y003750D01*
X018250Y003675D01*
X018400Y003675D01*
X018475Y003750D01*
X018635Y003675D02*
X018936Y003975D01*
X018936Y004050D01*
X018861Y004125D01*
X018710Y004125D01*
X018635Y004050D01*
X018475Y004050D02*
X018400Y004125D01*
X018250Y004125D01*
X018635Y003675D02*
X018936Y003675D01*
X015771Y008525D02*
X015621Y008525D01*
X015546Y008600D01*
X015546Y008750D02*
X015696Y008825D01*
X015771Y008825D01*
X015846Y008750D01*
X015846Y008600D01*
X015771Y008525D01*
X015546Y008750D02*
X015546Y008975D01*
X015846Y008975D01*
X015386Y008900D02*
X015386Y008750D01*
X015311Y008675D01*
X015085Y008675D01*
X015085Y008525D02*
X015085Y008975D01*
X015311Y008975D01*
X015386Y008900D01*
X014925Y008975D02*
X014625Y008975D01*
X014775Y008975D02*
X014775Y008525D01*
D12*
X017296Y011360D02*
X017373Y011360D01*
X017450Y011436D01*
X017450Y011667D01*
X017603Y011667D02*
X017296Y011667D01*
X017220Y011590D01*
X017220Y011436D01*
X017296Y011360D01*
X017603Y011360D02*
X017680Y011436D01*
X017680Y011590D01*
X017603Y011667D01*
X019270Y009867D02*
X019730Y009867D01*
X019270Y009560D01*
X019730Y009560D01*
X019730Y009406D02*
X019577Y009253D01*
X019577Y009329D02*
X019577Y009099D01*
X019730Y009099D02*
X019270Y009099D01*
X019270Y009329D01*
X019346Y009406D01*
X019500Y009406D01*
X019577Y009329D01*
X019653Y008946D02*
X019500Y008946D01*
X019500Y008792D01*
X019653Y008639D02*
X019346Y008639D01*
X019270Y008716D01*
X019270Y008869D01*
X019346Y008946D01*
X019653Y008946D02*
X019730Y008869D01*
X019730Y008716D01*
X019653Y008639D01*
X020270Y008639D02*
X020270Y008869D01*
X020346Y008946D01*
X020423Y008946D01*
X020500Y008869D01*
X020500Y008639D01*
X020730Y008639D02*
X020270Y008639D01*
X020500Y008869D02*
X020577Y008946D01*
X020653Y008946D01*
X020730Y008869D01*
X020730Y008639D01*
X021270Y008639D02*
X021270Y008869D01*
X021346Y008946D01*
X021500Y008946D01*
X021577Y008869D01*
X021577Y008639D01*
X021730Y008639D02*
X021270Y008639D01*
X021577Y008792D02*
X021730Y008946D01*
X021730Y009099D02*
X021270Y009099D01*
X021270Y009406D01*
X021270Y009560D02*
X021270Y009790D01*
X021346Y009867D01*
X021653Y009867D01*
X021730Y009790D01*
X021730Y009560D01*
X021270Y009560D01*
X021730Y009406D02*
X021730Y009099D01*
X021500Y009099D02*
X021500Y009253D01*
X020730Y009099D02*
X020730Y009406D01*
X020730Y009560D02*
X020270Y009560D01*
X020500Y009636D02*
X020730Y009867D01*
X020577Y009560D02*
X020270Y009867D01*
X020270Y009099D02*
X020730Y009099D01*
X022270Y009099D02*
X022730Y009099D01*
X022730Y009406D01*
X022653Y009560D02*
X022270Y009560D01*
X022270Y009867D02*
X022653Y009867D01*
X022730Y009790D01*
X022730Y009636D01*
X022653Y009560D01*
X023020Y009639D02*
X023403Y009639D01*
X023480Y009716D01*
X023480Y009869D01*
X023403Y009946D01*
X023020Y009946D01*
X023096Y010099D02*
X023020Y010176D01*
X023020Y010329D01*
X023096Y010406D01*
X023096Y010560D02*
X023020Y010636D01*
X023020Y010790D01*
X023096Y010867D01*
X023173Y010867D01*
X023480Y010560D01*
X023480Y010867D01*
X023403Y010406D02*
X023327Y010406D01*
X023250Y010329D01*
X023250Y010176D01*
X023173Y010099D01*
X023096Y010099D01*
X022943Y010253D02*
X023557Y010253D01*
X023480Y010329D02*
X023403Y010406D01*
X023480Y010329D02*
X023480Y010176D01*
X023403Y010099D01*
X024320Y011053D02*
X024473Y010899D01*
X024320Y011053D02*
X024780Y011053D01*
X024780Y011206D02*
X024780Y010899D01*
X024703Y011360D02*
X024550Y011360D01*
X024550Y011590D01*
X024627Y011667D01*
X024703Y011667D01*
X024780Y011590D01*
X024780Y011436D01*
X024703Y011360D01*
X024550Y011360D02*
X024396Y011513D01*
X024320Y011667D01*
X022653Y008946D02*
X022730Y008869D01*
X022730Y008639D01*
X022270Y008639D01*
X022270Y008869D01*
X022346Y008946D01*
X022423Y008946D01*
X022500Y008869D01*
X022500Y008639D01*
X022500Y008869D02*
X022577Y008946D01*
X022653Y008946D01*
X028736Y008086D02*
X028795Y008144D01*
X028970Y008144D01*
X028970Y008028D02*
X028795Y008028D01*
X028736Y008086D01*
X028795Y008028D02*
X028736Y007969D01*
X028736Y007911D01*
X028970Y007911D01*
X028970Y007785D02*
X028795Y007785D01*
X028736Y007727D01*
X028795Y007669D01*
X028970Y007669D01*
X028970Y007552D02*
X028736Y007552D01*
X028736Y007610D01*
X028795Y007669D01*
X028736Y007426D02*
X028678Y007426D01*
X028620Y007368D01*
X028620Y007251D01*
X028678Y007193D01*
X028736Y007426D02*
X028970Y007193D01*
X028970Y007426D01*
X028970Y007070D02*
X028970Y007012D01*
X028912Y007012D01*
X028912Y007070D01*
X028970Y007070D01*
X029087Y006953D01*
X028912Y006828D02*
X028795Y006828D01*
X028736Y006769D01*
X028736Y006711D01*
X028795Y006594D01*
X028620Y006594D01*
X028620Y006828D01*
X028912Y006828D02*
X028970Y006769D01*
X028970Y006653D01*
X028912Y006594D01*
X028970Y006469D02*
X028970Y006235D01*
X028970Y006352D02*
X028620Y006352D01*
X028736Y006235D01*
X028736Y006109D02*
X028970Y006109D01*
X028795Y006109D02*
X028795Y005876D01*
X028736Y005876D02*
X028620Y005993D01*
X028736Y006109D01*
X028736Y005876D02*
X028970Y005876D01*
X025603Y016639D02*
X025220Y016639D01*
X025603Y016639D02*
X025680Y016716D01*
X025680Y016869D01*
X025603Y016946D01*
X025220Y016946D01*
X025296Y017099D02*
X025220Y017176D01*
X025220Y017329D01*
X025296Y017406D01*
X025450Y017329D02*
X025450Y017176D01*
X025373Y017099D01*
X025296Y017099D01*
X025143Y017253D02*
X025757Y017253D01*
X025680Y017176D02*
X025680Y017329D01*
X025603Y017406D01*
X025527Y017406D01*
X025450Y017329D01*
X025373Y017560D02*
X025220Y017713D01*
X025680Y017713D01*
X025680Y017560D02*
X025680Y017867D01*
X025680Y017176D02*
X025603Y017099D01*
X024780Y018220D02*
X024780Y018527D01*
X024780Y018373D02*
X024320Y018373D01*
X024473Y018220D01*
X017680Y018297D02*
X017603Y018220D01*
X017527Y018220D01*
X017450Y018297D01*
X017450Y018450D01*
X017527Y018527D01*
X017603Y018527D01*
X017680Y018450D01*
X017680Y018297D01*
X017450Y018297D02*
X017373Y018220D01*
X017296Y018220D01*
X017220Y018297D01*
X017220Y018450D01*
X017296Y018527D01*
X017373Y018527D01*
X017450Y018450D01*
X014980Y018040D02*
X014980Y017886D01*
X014903Y017810D01*
X014903Y017656D02*
X014827Y017656D01*
X014750Y017579D01*
X014750Y017426D01*
X014673Y017349D01*
X014596Y017349D01*
X014520Y017426D01*
X014520Y017579D01*
X014596Y017656D01*
X014596Y017810D02*
X014520Y017886D01*
X014520Y018040D01*
X014596Y018117D01*
X014673Y018117D01*
X014750Y018040D01*
X014827Y018117D01*
X014903Y018117D01*
X014980Y018040D01*
X014750Y018040D02*
X014750Y017963D01*
X014903Y017656D02*
X014980Y017579D01*
X014980Y017426D01*
X014903Y017349D01*
X014903Y017196D02*
X014520Y017196D01*
X014520Y016889D02*
X014903Y016889D01*
X014980Y016966D01*
X014980Y017119D01*
X014903Y017196D01*
X015057Y017503D02*
X014443Y017503D01*
D13*
X014628Y019615D02*
X014875Y019615D01*
X014752Y019615D02*
X014752Y019985D01*
X014628Y019862D01*
X014997Y019924D02*
X014997Y019677D01*
X015244Y019924D01*
X015244Y019677D01*
X015182Y019615D01*
X015058Y019615D01*
X014997Y019677D01*
X014997Y019924D02*
X015058Y019985D01*
X015182Y019985D01*
X015244Y019924D01*
X015797Y019924D02*
X015797Y019862D01*
X015858Y019800D01*
X016044Y019800D01*
X016044Y019677D02*
X016044Y019924D01*
X015982Y019985D01*
X015858Y019985D01*
X015797Y019924D01*
X015797Y019677D02*
X015858Y019615D01*
X015982Y019615D01*
X016044Y019677D01*
X016797Y019677D02*
X016797Y019738D01*
X016858Y019800D01*
X016982Y019800D01*
X017044Y019738D01*
X017044Y019677D01*
X016982Y019615D01*
X016858Y019615D01*
X016797Y019677D01*
X016858Y019800D02*
X016797Y019862D01*
X016797Y019924D01*
X016858Y019985D01*
X016982Y019985D01*
X017044Y019924D01*
X017044Y019862D01*
X016982Y019800D01*
X018397Y019677D02*
X018397Y019615D01*
X018397Y019677D02*
X018644Y019924D01*
X018644Y019985D01*
X018397Y019985D01*
X019397Y019800D02*
X019397Y019677D01*
X019458Y019615D01*
X019582Y019615D01*
X019644Y019677D01*
X019644Y019738D01*
X019582Y019800D01*
X019397Y019800D01*
X019520Y019924D01*
X019644Y019985D01*
X020397Y019985D02*
X020397Y019800D01*
X020520Y019862D01*
X020582Y019862D01*
X020644Y019800D01*
X020644Y019677D01*
X020582Y019615D01*
X020458Y019615D01*
X020397Y019677D01*
X020397Y019985D02*
X020644Y019985D01*
X021397Y019800D02*
X021644Y019800D01*
X021582Y019615D02*
X021582Y019985D01*
X021397Y019800D01*
X022397Y019677D02*
X022458Y019615D01*
X022582Y019615D01*
X022644Y019677D01*
X022644Y019738D01*
X022582Y019800D01*
X022520Y019800D01*
X022582Y019800D02*
X022644Y019862D01*
X022644Y019924D01*
X022582Y019985D01*
X022458Y019985D01*
X022397Y019924D01*
X023397Y019924D02*
X023458Y019985D01*
X023582Y019985D01*
X023644Y019924D01*
X023644Y019862D01*
X023397Y019615D01*
X023644Y019615D01*
X024397Y019615D02*
X024644Y019615D01*
X024520Y019615D02*
X024520Y019985D01*
X024397Y019862D01*
X025397Y019924D02*
X025397Y019677D01*
X025644Y019924D01*
X025644Y019677D01*
X025582Y019615D01*
X025458Y019615D01*
X025397Y019677D01*
X025397Y019924D02*
X025458Y019985D01*
X025582Y019985D01*
X025644Y019924D01*
X023881Y021077D02*
X023881Y021324D01*
X023819Y021385D01*
X023696Y021385D01*
X023634Y021324D01*
X023634Y021077D01*
X023696Y021015D01*
X023819Y021015D01*
X023881Y021077D01*
X023513Y021385D02*
X023266Y021015D01*
X023144Y021015D02*
X023020Y021015D01*
X023082Y021015D02*
X023082Y021385D01*
X023020Y021385D02*
X023144Y021385D01*
X022530Y021015D02*
X022407Y021015D01*
X022468Y021015D02*
X022468Y021385D01*
X022407Y021385D01*
X022223Y021262D02*
X022285Y021200D01*
X022285Y021015D01*
X022100Y021015D01*
X022038Y021077D01*
X022100Y021138D01*
X022285Y021138D01*
X022223Y021262D02*
X022100Y021262D01*
X021916Y021262D02*
X021793Y021262D01*
X021854Y021324D02*
X021854Y021077D01*
X021916Y021015D01*
X021671Y021015D02*
X021547Y021015D01*
X021609Y021015D02*
X021609Y021262D01*
X021547Y021262D01*
X021426Y021262D02*
X021241Y021262D01*
X021179Y021200D01*
X021179Y021077D01*
X021241Y021015D01*
X021426Y021015D01*
X021426Y020953D02*
X021426Y021262D01*
X021609Y021385D02*
X021609Y021447D01*
X020995Y021447D02*
X020995Y021385D01*
X020995Y021262D02*
X020995Y021015D01*
X020933Y021015D02*
X021057Y021015D01*
X020812Y021077D02*
X020812Y021324D01*
X020750Y021385D01*
X020565Y021385D01*
X020565Y021015D01*
X020750Y021015D01*
X020812Y021077D01*
X020933Y021262D02*
X020995Y021262D01*
X021302Y020892D02*
X021364Y020892D01*
X021426Y020953D01*
X016281Y021077D02*
X016281Y021324D01*
X016219Y021385D01*
X016096Y021385D01*
X016034Y021324D01*
X016034Y021077D01*
X016096Y021015D01*
X016219Y021015D01*
X016281Y021077D01*
X015913Y021385D02*
X015666Y021015D01*
X015544Y021015D02*
X015420Y021015D01*
X015482Y021015D02*
X015482Y021385D01*
X015420Y021385D02*
X015544Y021385D01*
X014930Y021015D02*
X014807Y021015D01*
X014868Y021015D02*
X014868Y021385D01*
X014807Y021385D01*
X014623Y021262D02*
X014685Y021200D01*
X014685Y021015D01*
X014500Y021015D01*
X014438Y021077D01*
X014500Y021138D01*
X014685Y021138D01*
X014623Y021262D02*
X014500Y021262D01*
X014316Y021262D02*
X014193Y021262D01*
X014254Y021324D02*
X014254Y021077D01*
X014316Y021015D01*
X014071Y021015D02*
X013947Y021015D01*
X014009Y021015D02*
X014009Y021262D01*
X013947Y021262D01*
X013826Y021262D02*
X013641Y021262D01*
X013579Y021200D01*
X013579Y021077D01*
X013641Y021015D01*
X013826Y021015D01*
X013826Y020953D02*
X013826Y021262D01*
X014009Y021385D02*
X014009Y021447D01*
X013395Y021447D02*
X013395Y021385D01*
X013395Y021262D02*
X013395Y021015D01*
X013333Y021015D02*
X013457Y021015D01*
X013212Y021077D02*
X013212Y021324D01*
X013150Y021385D01*
X012965Y021385D01*
X012965Y021015D01*
X013150Y021015D01*
X013212Y021077D01*
X013333Y021262D02*
X013395Y021262D01*
X013702Y020892D02*
X013764Y020892D01*
X013826Y020953D01*
X013752Y019985D02*
X013752Y019615D01*
X013875Y019615D02*
X013628Y019615D01*
X013628Y019862D02*
X013752Y019985D01*
X013997Y019862D02*
X014120Y019985D01*
X014120Y019615D01*
X013997Y019615D02*
X014244Y019615D01*
X013244Y019615D02*
X012997Y019615D01*
X013244Y019862D01*
X013244Y019924D01*
X013182Y019985D01*
X013058Y019985D01*
X012997Y019924D01*
X012752Y019985D02*
X012752Y019615D01*
X012875Y019615D02*
X012628Y019615D01*
X012628Y019862D02*
X012752Y019985D01*
X012244Y019924D02*
X012244Y019862D01*
X012182Y019800D01*
X012244Y019738D01*
X012244Y019677D01*
X012182Y019615D01*
X012058Y019615D01*
X011997Y019677D01*
X011875Y019615D02*
X011628Y019615D01*
X011752Y019615D02*
X011752Y019985D01*
X011628Y019862D01*
X011997Y019924D02*
X012058Y019985D01*
X012182Y019985D01*
X012244Y019924D01*
X012182Y019800D02*
X012120Y019800D01*
X011085Y019808D02*
X011023Y019747D01*
X010900Y019747D01*
X010838Y019808D01*
X010838Y019994D01*
X010715Y019994D02*
X011085Y019994D01*
X011085Y019808D01*
X011085Y019625D02*
X010900Y019625D01*
X010838Y019564D01*
X010838Y019378D01*
X011085Y019378D01*
X011085Y019257D02*
X011085Y019072D01*
X011023Y019010D01*
X010900Y019010D01*
X010838Y019072D01*
X010838Y019257D01*
X011147Y019257D01*
X011208Y019195D01*
X011208Y019133D01*
X010085Y019183D02*
X009715Y019183D01*
X009715Y019368D01*
X009776Y019430D01*
X009900Y019430D01*
X009962Y019368D01*
X009962Y019183D01*
X009962Y019306D02*
X010085Y019430D01*
X010023Y019551D02*
X009900Y019551D01*
X009838Y019613D01*
X009838Y019736D01*
X009900Y019798D01*
X009962Y019798D01*
X009962Y019551D01*
X010023Y019551D02*
X010085Y019613D01*
X010085Y019736D01*
X010085Y019981D02*
X009776Y019981D01*
X009715Y020043D01*
X009900Y020043D02*
X009900Y019919D01*
X009085Y019797D02*
X008838Y019797D01*
X008715Y019920D01*
X008838Y020044D01*
X009085Y020044D01*
X008900Y020044D02*
X008900Y019797D01*
X009023Y019675D02*
X008776Y019675D01*
X008715Y019614D01*
X008715Y019428D01*
X009085Y019428D01*
X009085Y019614D01*
X009023Y019675D01*
X009023Y019307D02*
X009085Y019245D01*
X009085Y019122D01*
X009023Y019060D01*
X008900Y019122D02*
X008900Y019245D01*
X008962Y019307D01*
X009023Y019307D01*
X008900Y019122D02*
X008838Y019060D01*
X008776Y019060D01*
X008715Y019122D01*
X008715Y019245D01*
X008776Y019307D01*
X008085Y019245D02*
X008085Y019122D01*
X008023Y019060D01*
X007900Y019122D02*
X007900Y019245D01*
X007962Y019307D01*
X008023Y019307D01*
X008085Y019245D01*
X008023Y019428D02*
X007776Y019428D01*
X007715Y019490D01*
X007715Y019614D01*
X007776Y019675D01*
X007715Y019797D02*
X008085Y019797D01*
X008085Y020044D01*
X008023Y019675D02*
X008085Y019614D01*
X008085Y019490D01*
X008023Y019428D01*
X007776Y019307D02*
X007715Y019245D01*
X007715Y019122D01*
X007776Y019060D01*
X007838Y019060D01*
X007900Y019122D01*
X009715Y018938D02*
X009838Y019061D01*
X010085Y019061D01*
X009900Y019061D02*
X009900Y018815D01*
X009838Y018815D02*
X009715Y018938D01*
X009838Y018815D02*
X010085Y018815D01*
X013315Y002995D02*
X013315Y002748D01*
X013315Y002871D02*
X013685Y002871D01*
X013623Y002626D02*
X013562Y002626D01*
X013500Y002564D01*
X013500Y002441D01*
X013438Y002379D01*
X013376Y002379D01*
X013315Y002441D01*
X013315Y002564D01*
X013376Y002626D01*
X013623Y002626D02*
X013685Y002564D01*
X013685Y002441D01*
X013623Y002379D01*
X013685Y002258D02*
X013562Y002134D01*
X013562Y002196D02*
X013562Y002011D01*
X013685Y002011D02*
X013315Y002011D01*
X013315Y002196D01*
X013376Y002258D01*
X013500Y002258D01*
X013562Y002196D01*
X014197Y002077D02*
X014259Y002015D01*
X014382Y002015D01*
X014444Y002077D01*
X014444Y002138D01*
X014382Y002200D01*
X014320Y002200D01*
X014382Y002200D02*
X014444Y002262D01*
X014444Y002324D01*
X014382Y002385D01*
X014259Y002385D01*
X014197Y002324D01*
X014565Y002262D02*
X014689Y002015D01*
X014812Y002262D01*
X015297Y002200D02*
X015420Y002262D01*
X015482Y002262D01*
X015544Y002200D01*
X015544Y002077D01*
X015482Y002015D01*
X015359Y002015D01*
X015297Y002077D01*
X015297Y002200D02*
X015297Y002385D01*
X015544Y002385D01*
X015665Y002262D02*
X015789Y002015D01*
X015912Y002262D01*
X016569Y002324D02*
X016569Y002077D01*
X016631Y002015D01*
X016754Y002015D01*
X016816Y002077D01*
X016816Y002200D01*
X016692Y002200D01*
X016569Y002324D02*
X016631Y002385D01*
X016754Y002385D01*
X016816Y002324D01*
X016937Y002262D02*
X017122Y002262D01*
X017184Y002200D01*
X017184Y002015D01*
X017306Y002077D02*
X017306Y002200D01*
X017367Y002262D01*
X017552Y002262D01*
X017552Y002385D02*
X017552Y002015D01*
X017367Y002015D01*
X017306Y002077D01*
X016937Y002015D02*
X016937Y002262D01*
X018147Y002385D02*
X018147Y002138D01*
X018270Y002015D01*
X018394Y002138D01*
X018394Y002385D01*
X018515Y002262D02*
X018577Y002262D01*
X018577Y002015D01*
X018515Y002015D02*
X018639Y002015D01*
X018761Y002015D02*
X018761Y002262D01*
X018946Y002262D01*
X019008Y002200D01*
X019008Y002015D01*
X018577Y002385D02*
X018577Y002447D01*
X020365Y002324D02*
X020365Y002077D01*
X020612Y002324D01*
X020612Y002077D01*
X020550Y002015D01*
X020427Y002015D01*
X020365Y002077D01*
X020365Y002324D02*
X020427Y002385D01*
X020550Y002385D01*
X020612Y002324D01*
X021365Y002262D02*
X021488Y002385D01*
X021488Y002015D01*
X021365Y002015D02*
X021612Y002015D01*
X022365Y002015D02*
X022612Y002262D01*
X022612Y002324D01*
X022550Y002385D01*
X022427Y002385D01*
X022365Y002324D01*
X022365Y002015D02*
X022612Y002015D01*
X023365Y002077D02*
X023427Y002015D01*
X023550Y002015D01*
X023612Y002077D01*
X023612Y002138D01*
X023550Y002200D01*
X023488Y002200D01*
X023550Y002200D02*
X023612Y002262D01*
X023612Y002324D01*
X023550Y002385D01*
X023427Y002385D01*
X023365Y002324D01*
X024365Y002200D02*
X024612Y002200D01*
X024550Y002015D02*
X024550Y002385D01*
X024365Y002200D01*
X025365Y002200D02*
X025488Y002262D01*
X025550Y002262D01*
X025612Y002200D01*
X025612Y002077D01*
X025550Y002015D01*
X025427Y002015D01*
X025365Y002077D01*
X025365Y002200D02*
X025365Y002385D01*
X025612Y002385D01*
X024705Y000944D02*
X024520Y000944D01*
X024520Y000697D01*
X024398Y000697D02*
X024274Y000697D01*
X024336Y000697D02*
X024336Y001067D01*
X024274Y001067D02*
X024398Y001067D01*
X024705Y000944D02*
X024767Y000882D01*
X024767Y000697D01*
X023785Y000697D02*
X023599Y000697D01*
X023538Y000759D01*
X023538Y000882D01*
X023599Y000944D01*
X023785Y000944D01*
X023785Y000635D01*
X023723Y000574D01*
X023661Y000574D01*
X023416Y000759D02*
X023416Y000882D01*
X023355Y000944D01*
X023231Y000944D01*
X023169Y000882D01*
X023169Y000759D01*
X023231Y000697D01*
X023355Y000697D01*
X023416Y000759D01*
X023047Y000697D02*
X022924Y000697D01*
X022986Y000697D02*
X022986Y001067D01*
X022924Y001067D01*
X022741Y000944D02*
X022802Y000882D01*
X022802Y000697D01*
X022617Y000697D01*
X022556Y000759D01*
X022617Y000820D01*
X022802Y000820D01*
X022741Y000944D02*
X022617Y000944D01*
X022434Y000882D02*
X022434Y000697D01*
X022434Y000882D02*
X022372Y000944D01*
X022187Y000944D01*
X022187Y000697D01*
X022066Y000697D02*
X022066Y000944D01*
X021942Y001067D01*
X021819Y000944D01*
X021819Y000697D01*
X021819Y000882D02*
X022066Y000882D01*
X012685Y002011D02*
X012685Y002134D01*
X012685Y002073D02*
X012315Y002073D01*
X012315Y002134D02*
X012315Y002011D01*
X012376Y002257D02*
X012315Y002318D01*
X012315Y002442D01*
X012376Y002503D01*
X012623Y002503D01*
X012685Y002442D01*
X012685Y002318D01*
X012623Y002257D01*
X012376Y002257D01*
X012438Y002625D02*
X012685Y002625D01*
X012562Y002625D02*
X012438Y002748D01*
X012438Y002810D01*
D14*
X017050Y002600D02*
X017050Y003400D01*
X017052Y003417D01*
X017056Y003434D01*
X017063Y003450D01*
X017073Y003464D01*
X017086Y003477D01*
X017100Y003487D01*
X017116Y003494D01*
X017133Y003498D01*
X017150Y003500D01*
X019850Y003500D01*
X019867Y003498D01*
X019884Y003494D01*
X019900Y003487D01*
X019914Y003477D01*
X019927Y003464D01*
X019937Y003450D01*
X019944Y003434D01*
X019948Y003417D01*
X019950Y003400D01*
X019950Y002600D01*
X019948Y002583D01*
X019944Y002566D01*
X019937Y002550D01*
X019927Y002536D01*
X019914Y002523D01*
X019900Y002513D01*
X019884Y002506D01*
X019867Y002502D01*
X019850Y002500D01*
X017150Y002500D01*
X017133Y002502D01*
X017116Y002506D01*
X017100Y002513D01*
X017086Y002523D01*
X017073Y002536D01*
X017063Y002550D01*
X017056Y002566D01*
X017052Y002583D01*
X017050Y002600D01*
X017900Y003000D02*
X018370Y003000D01*
X018620Y003000D02*
X019100Y003000D01*
X017950Y004850D02*
X017950Y005000D01*
X017900Y005050D01*
X017900Y006950D01*
X017950Y007000D01*
X017950Y007150D01*
X017100Y006950D02*
X017100Y005050D01*
X017050Y005000D01*
X017050Y004850D01*
X019850Y006050D02*
X020000Y006050D01*
X020050Y006100D01*
X021950Y006100D01*
X022000Y006050D01*
X022150Y006050D01*
X021950Y006900D02*
X020050Y006900D01*
X020000Y006950D01*
X019850Y006950D01*
X021950Y006900D02*
X022000Y006950D01*
X022150Y006950D01*
X025000Y008550D02*
X029900Y008550D01*
X029900Y008200D01*
X030500Y008200D01*
X030500Y008550D01*
X031250Y008550D01*
X031250Y004450D01*
X030500Y004450D01*
X030500Y004800D01*
X029900Y004800D01*
X029900Y004450D01*
X025000Y004450D01*
X025000Y008550D01*
X027050Y010050D02*
X027350Y010050D01*
X027200Y010200D02*
X027200Y009900D01*
X024400Y010500D02*
X024402Y010580D01*
X024408Y010659D01*
X024418Y010738D01*
X024432Y010817D01*
X024449Y010895D01*
X024471Y010972D01*
X024496Y011047D01*
X024526Y011121D01*
X024558Y011194D01*
X024595Y011265D01*
X024635Y011334D01*
X024678Y011401D01*
X024725Y011466D01*
X024774Y011528D01*
X024827Y011588D01*
X024883Y011645D01*
X024941Y011700D01*
X025002Y011751D01*
X025066Y011799D01*
X025132Y011844D01*
X025200Y011886D01*
X025270Y011924D01*
X025342Y011958D01*
X025415Y011989D01*
X025490Y012017D01*
X025567Y012040D01*
X025644Y012060D01*
X025722Y012076D01*
X025801Y012088D01*
X025880Y012096D01*
X025960Y012100D01*
X026040Y012100D01*
X026120Y012096D01*
X026199Y012088D01*
X026278Y012076D01*
X026356Y012060D01*
X026433Y012040D01*
X026510Y012017D01*
X026585Y011989D01*
X026658Y011958D01*
X026730Y011924D01*
X026800Y011886D01*
X026868Y011844D01*
X026934Y011799D01*
X026998Y011751D01*
X027059Y011700D01*
X027117Y011645D01*
X027173Y011588D01*
X027226Y011528D01*
X027275Y011466D01*
X027322Y011401D01*
X027365Y011334D01*
X027405Y011265D01*
X027442Y011194D01*
X027474Y011121D01*
X027504Y011047D01*
X027529Y010972D01*
X027551Y010895D01*
X027568Y010817D01*
X027582Y010738D01*
X027592Y010659D01*
X027598Y010580D01*
X027600Y010500D01*
X027598Y010420D01*
X027592Y010341D01*
X027582Y010262D01*
X027568Y010183D01*
X027551Y010105D01*
X027529Y010028D01*
X027504Y009953D01*
X027474Y009879D01*
X027442Y009806D01*
X027405Y009735D01*
X027365Y009666D01*
X027322Y009599D01*
X027275Y009534D01*
X027226Y009472D01*
X027173Y009412D01*
X027117Y009355D01*
X027059Y009300D01*
X026998Y009249D01*
X026934Y009201D01*
X026868Y009156D01*
X026800Y009114D01*
X026730Y009076D01*
X026658Y009042D01*
X026585Y009011D01*
X026510Y008983D01*
X026433Y008960D01*
X026356Y008940D01*
X026278Y008924D01*
X026199Y008912D01*
X026120Y008904D01*
X026040Y008900D01*
X025960Y008900D01*
X025880Y008904D01*
X025801Y008912D01*
X025722Y008924D01*
X025644Y008940D01*
X025567Y008960D01*
X025490Y008983D01*
X025415Y009011D01*
X025342Y009042D01*
X025270Y009076D01*
X025200Y009114D01*
X025132Y009156D01*
X025066Y009201D01*
X025002Y009249D01*
X024941Y009300D01*
X024883Y009355D01*
X024827Y009412D01*
X024774Y009472D01*
X024725Y009534D01*
X024678Y009599D01*
X024635Y009666D01*
X024595Y009735D01*
X024558Y009806D01*
X024526Y009879D01*
X024496Y009953D01*
X024471Y010028D01*
X024449Y010105D01*
X024432Y010183D01*
X024418Y010262D01*
X024408Y010341D01*
X024402Y010420D01*
X024400Y010500D01*
X029190Y006500D02*
X029192Y006553D01*
X029198Y006606D01*
X029208Y006658D01*
X029222Y006709D01*
X029239Y006759D01*
X029260Y006808D01*
X029285Y006855D01*
X029313Y006900D01*
X029345Y006943D01*
X029380Y006983D01*
X029417Y007020D01*
X029457Y007055D01*
X029500Y007087D01*
X029545Y007115D01*
X029592Y007140D01*
X029641Y007161D01*
X029691Y007178D01*
X029742Y007192D01*
X029794Y007202D01*
X029847Y007208D01*
X029900Y007210D01*
X029953Y007208D01*
X030006Y007202D01*
X030058Y007192D01*
X030109Y007178D01*
X030159Y007161D01*
X030208Y007140D01*
X030255Y007115D01*
X030300Y007087D01*
X030343Y007055D01*
X030383Y007020D01*
X030420Y006983D01*
X030455Y006943D01*
X030487Y006900D01*
X030515Y006855D01*
X030540Y006808D01*
X030561Y006759D01*
X030578Y006709D01*
X030592Y006658D01*
X030602Y006606D01*
X030608Y006553D01*
X030610Y006500D01*
X030608Y006447D01*
X030602Y006394D01*
X030592Y006342D01*
X030578Y006291D01*
X030561Y006241D01*
X030540Y006192D01*
X030515Y006145D01*
X030487Y006100D01*
X030455Y006057D01*
X030420Y006017D01*
X030383Y005980D01*
X030343Y005945D01*
X030300Y005913D01*
X030255Y005885D01*
X030208Y005860D01*
X030159Y005839D01*
X030109Y005822D01*
X030058Y005808D01*
X030006Y005798D01*
X029953Y005792D01*
X029900Y005790D01*
X029847Y005792D01*
X029794Y005798D01*
X029742Y005808D01*
X029691Y005822D01*
X029641Y005839D01*
X029592Y005860D01*
X029545Y005885D01*
X029500Y005913D01*
X029457Y005945D01*
X029417Y005980D01*
X029380Y006017D01*
X029345Y006057D01*
X029313Y006100D01*
X029285Y006145D01*
X029260Y006192D01*
X029239Y006241D01*
X029222Y006291D01*
X029208Y006342D01*
X029198Y006394D01*
X029192Y006447D01*
X029190Y006500D01*
X017100Y006950D02*
X017050Y007000D01*
X017050Y007150D01*
D15*
X025250Y008300D02*
X025250Y004700D01*
X028500Y004700D01*
X028500Y008300D01*
X025250Y008300D01*
D16*
X027534Y007601D02*
X028165Y007601D01*
X028165Y007811D02*
X028165Y007390D01*
X028060Y007166D02*
X028165Y007061D01*
X028165Y006851D01*
X028060Y006746D01*
X027640Y006746D01*
X027534Y006851D01*
X027534Y007061D01*
X027640Y007166D01*
X027745Y007390D02*
X027534Y007601D01*
X027534Y006526D02*
X027534Y006316D01*
X027534Y006421D02*
X028165Y006421D01*
X028165Y006316D02*
X028165Y006526D01*
D17*
X024825Y006500D03*
X024825Y007500D03*
X024825Y005500D03*
D18*
X018620Y003250D02*
X018620Y003000D01*
X018620Y002750D01*
X018370Y002750D02*
X018370Y003000D01*
X018370Y003250D01*
D19*
X017854Y004726D02*
X017854Y004776D01*
X017855Y004775D02*
X017870Y004778D01*
X017884Y004783D01*
X017897Y004792D01*
X017908Y004803D01*
X017917Y004816D01*
X017922Y004830D01*
X017925Y004845D01*
X017974Y004846D01*
X017975Y004845D01*
X017972Y004824D01*
X017966Y004805D01*
X017957Y004786D01*
X017945Y004769D01*
X017931Y004755D01*
X017914Y004743D01*
X017895Y004734D01*
X017876Y004728D01*
X017855Y004725D01*
X017855Y004734D01*
X017874Y004737D01*
X017892Y004742D01*
X017909Y004750D01*
X017925Y004761D01*
X017939Y004775D01*
X017950Y004791D01*
X017958Y004808D01*
X017963Y004826D01*
X017966Y004845D01*
X017957Y004845D01*
X017954Y004825D01*
X017948Y004807D01*
X017938Y004790D01*
X017926Y004774D01*
X017910Y004762D01*
X017893Y004752D01*
X017875Y004746D01*
X017855Y004743D01*
X017855Y004752D01*
X017873Y004755D01*
X017890Y004760D01*
X017905Y004769D01*
X017919Y004781D01*
X017931Y004795D01*
X017940Y004810D01*
X017945Y004827D01*
X017948Y004845D01*
X017939Y004845D01*
X017936Y004827D01*
X017929Y004809D01*
X017919Y004794D01*
X017906Y004781D01*
X017891Y004771D01*
X017873Y004764D01*
X017855Y004761D01*
X017855Y004770D01*
X017871Y004773D01*
X017887Y004779D01*
X017900Y004788D01*
X017912Y004800D01*
X017921Y004813D01*
X017927Y004829D01*
X017930Y004845D01*
X017026Y004846D02*
X017076Y004846D01*
X017075Y004845D02*
X017078Y004830D01*
X017083Y004816D01*
X017092Y004803D01*
X017103Y004792D01*
X017116Y004783D01*
X017130Y004778D01*
X017145Y004775D01*
X017146Y004726D01*
X017145Y004725D01*
X017124Y004728D01*
X017105Y004734D01*
X017086Y004743D01*
X017069Y004755D01*
X017055Y004769D01*
X017043Y004786D01*
X017034Y004805D01*
X017028Y004824D01*
X017025Y004845D01*
X017034Y004845D01*
X017037Y004826D01*
X017042Y004808D01*
X017050Y004791D01*
X017061Y004775D01*
X017075Y004761D01*
X017091Y004750D01*
X017108Y004742D01*
X017126Y004737D01*
X017145Y004734D01*
X017145Y004743D01*
X017125Y004746D01*
X017107Y004752D01*
X017090Y004762D01*
X017074Y004774D01*
X017062Y004790D01*
X017052Y004807D01*
X017046Y004825D01*
X017043Y004845D01*
X017052Y004845D01*
X017055Y004827D01*
X017060Y004810D01*
X017069Y004795D01*
X017081Y004781D01*
X017095Y004769D01*
X017110Y004760D01*
X017127Y004755D01*
X017145Y004752D01*
X017145Y004761D01*
X017127Y004764D01*
X017109Y004771D01*
X017094Y004781D01*
X017081Y004794D01*
X017071Y004809D01*
X017064Y004827D01*
X017061Y004845D01*
X017070Y004845D01*
X017073Y004829D01*
X017079Y004813D01*
X017088Y004800D01*
X017100Y004788D01*
X017113Y004779D01*
X017129Y004773D01*
X017145Y004770D01*
X019726Y006146D02*
X019776Y006146D01*
X019775Y006145D02*
X019778Y006130D01*
X019783Y006116D01*
X019792Y006103D01*
X019803Y006092D01*
X019816Y006083D01*
X019830Y006078D01*
X019845Y006075D01*
X019846Y006026D01*
X019845Y006025D01*
X019824Y006028D01*
X019805Y006034D01*
X019786Y006043D01*
X019769Y006055D01*
X019755Y006069D01*
X019743Y006086D01*
X019734Y006105D01*
X019728Y006124D01*
X019725Y006145D01*
X019734Y006145D01*
X019737Y006126D01*
X019742Y006108D01*
X019750Y006091D01*
X019761Y006075D01*
X019775Y006061D01*
X019791Y006050D01*
X019808Y006042D01*
X019826Y006037D01*
X019845Y006034D01*
X019845Y006043D01*
X019825Y006046D01*
X019807Y006052D01*
X019790Y006062D01*
X019774Y006074D01*
X019762Y006090D01*
X019752Y006107D01*
X019746Y006125D01*
X019743Y006145D01*
X019752Y006145D01*
X019755Y006127D01*
X019760Y006110D01*
X019769Y006095D01*
X019781Y006081D01*
X019795Y006069D01*
X019810Y006060D01*
X019827Y006055D01*
X019845Y006052D01*
X019845Y006061D01*
X019827Y006064D01*
X019809Y006071D01*
X019794Y006081D01*
X019781Y006094D01*
X019771Y006109D01*
X019764Y006127D01*
X019761Y006145D01*
X019770Y006145D01*
X019773Y006129D01*
X019779Y006113D01*
X019788Y006100D01*
X019800Y006088D01*
X019813Y006079D01*
X019829Y006073D01*
X019845Y006070D01*
X019846Y006974D02*
X019846Y006924D01*
X019845Y006925D02*
X019830Y006922D01*
X019816Y006917D01*
X019803Y006908D01*
X019792Y006897D01*
X019783Y006884D01*
X019778Y006870D01*
X019775Y006855D01*
X019726Y006854D01*
X019725Y006855D01*
X019728Y006876D01*
X019734Y006895D01*
X019743Y006914D01*
X019755Y006931D01*
X019769Y006945D01*
X019786Y006957D01*
X019805Y006966D01*
X019824Y006972D01*
X019845Y006975D01*
X019845Y006966D01*
X019826Y006963D01*
X019808Y006958D01*
X019791Y006950D01*
X019775Y006939D01*
X019761Y006925D01*
X019750Y006909D01*
X019742Y006892D01*
X019737Y006874D01*
X019734Y006855D01*
X019743Y006855D01*
X019746Y006875D01*
X019752Y006893D01*
X019762Y006910D01*
X019774Y006926D01*
X019790Y006938D01*
X019807Y006948D01*
X019825Y006954D01*
X019845Y006957D01*
X019845Y006948D01*
X019827Y006945D01*
X019810Y006940D01*
X019795Y006931D01*
X019781Y006919D01*
X019769Y006905D01*
X019760Y006890D01*
X019755Y006873D01*
X019752Y006855D01*
X019761Y006855D01*
X019764Y006873D01*
X019771Y006891D01*
X019781Y006906D01*
X019794Y006919D01*
X019809Y006929D01*
X019827Y006936D01*
X019845Y006939D01*
X019845Y006930D01*
X019829Y006927D01*
X019813Y006921D01*
X019800Y006912D01*
X019788Y006900D01*
X019779Y006887D01*
X019773Y006871D01*
X019770Y006855D01*
X017974Y007154D02*
X017924Y007154D01*
X017925Y007155D02*
X017922Y007170D01*
X017917Y007184D01*
X017908Y007197D01*
X017897Y007208D01*
X017884Y007217D01*
X017870Y007222D01*
X017855Y007225D01*
X017854Y007274D01*
X017855Y007275D01*
X017876Y007272D01*
X017895Y007266D01*
X017914Y007257D01*
X017931Y007245D01*
X017945Y007231D01*
X017957Y007214D01*
X017966Y007195D01*
X017972Y007176D01*
X017975Y007155D01*
X017966Y007155D01*
X017963Y007174D01*
X017958Y007192D01*
X017950Y007209D01*
X017939Y007225D01*
X017925Y007239D01*
X017909Y007250D01*
X017892Y007258D01*
X017874Y007263D01*
X017855Y007266D01*
X017855Y007257D01*
X017875Y007254D01*
X017893Y007248D01*
X017910Y007238D01*
X017926Y007226D01*
X017938Y007210D01*
X017948Y007193D01*
X017954Y007175D01*
X017957Y007155D01*
X017948Y007155D01*
X017945Y007173D01*
X017940Y007190D01*
X017931Y007205D01*
X017919Y007219D01*
X017905Y007231D01*
X017890Y007240D01*
X017873Y007245D01*
X017855Y007248D01*
X017855Y007239D01*
X017873Y007236D01*
X017891Y007229D01*
X017906Y007219D01*
X017919Y007206D01*
X017929Y007191D01*
X017936Y007173D01*
X017939Y007155D01*
X017930Y007155D01*
X017927Y007171D01*
X017921Y007187D01*
X017912Y007200D01*
X017900Y007212D01*
X017887Y007221D01*
X017871Y007227D01*
X017855Y007230D01*
X017146Y007274D02*
X017146Y007224D01*
X017145Y007225D02*
X017130Y007222D01*
X017116Y007217D01*
X017103Y007208D01*
X017092Y007197D01*
X017083Y007184D01*
X017078Y007170D01*
X017075Y007155D01*
X017026Y007154D01*
X017025Y007155D01*
X017028Y007176D01*
X017034Y007195D01*
X017043Y007214D01*
X017055Y007231D01*
X017069Y007245D01*
X017086Y007257D01*
X017105Y007266D01*
X017124Y007272D01*
X017145Y007275D01*
X017145Y007266D01*
X017126Y007263D01*
X017108Y007258D01*
X017091Y007250D01*
X017075Y007239D01*
X017061Y007225D01*
X017050Y007209D01*
X017042Y007192D01*
X017037Y007174D01*
X017034Y007155D01*
X017043Y007155D01*
X017046Y007175D01*
X017052Y007193D01*
X017062Y007210D01*
X017074Y007226D01*
X017090Y007238D01*
X017107Y007248D01*
X017125Y007254D01*
X017145Y007257D01*
X017145Y007248D01*
X017127Y007245D01*
X017110Y007240D01*
X017095Y007231D01*
X017081Y007219D01*
X017069Y007205D01*
X017060Y007190D01*
X017055Y007173D01*
X017052Y007155D01*
X017061Y007155D01*
X017064Y007173D01*
X017071Y007191D01*
X017081Y007206D01*
X017094Y007219D01*
X017109Y007229D01*
X017127Y007236D01*
X017145Y007239D01*
X017145Y007230D01*
X017129Y007227D01*
X017113Y007221D01*
X017100Y007212D01*
X017088Y007200D01*
X017079Y007187D01*
X017073Y007171D01*
X017070Y007155D01*
X022274Y006854D02*
X022224Y006854D01*
X022225Y006855D02*
X022222Y006870D01*
X022217Y006884D01*
X022208Y006897D01*
X022197Y006908D01*
X022184Y006917D01*
X022170Y006922D01*
X022155Y006925D01*
X022154Y006974D01*
X022155Y006975D01*
X022176Y006972D01*
X022195Y006966D01*
X022214Y006957D01*
X022231Y006945D01*
X022245Y006931D01*
X022257Y006914D01*
X022266Y006895D01*
X022272Y006876D01*
X022275Y006855D01*
X022266Y006855D01*
X022263Y006874D01*
X022258Y006892D01*
X022250Y006909D01*
X022239Y006925D01*
X022225Y006939D01*
X022209Y006950D01*
X022192Y006958D01*
X022174Y006963D01*
X022155Y006966D01*
X022155Y006957D01*
X022175Y006954D01*
X022193Y006948D01*
X022210Y006938D01*
X022226Y006926D01*
X022238Y006910D01*
X022248Y006893D01*
X022254Y006875D01*
X022257Y006855D01*
X022248Y006855D01*
X022245Y006873D01*
X022240Y006890D01*
X022231Y006905D01*
X022219Y006919D01*
X022205Y006931D01*
X022190Y006940D01*
X022173Y006945D01*
X022155Y006948D01*
X022155Y006939D01*
X022173Y006936D01*
X022191Y006929D01*
X022206Y006919D01*
X022219Y006906D01*
X022229Y006891D01*
X022236Y006873D01*
X022239Y006855D01*
X022230Y006855D01*
X022227Y006871D01*
X022221Y006887D01*
X022212Y006900D01*
X022200Y006912D01*
X022187Y006921D01*
X022171Y006927D01*
X022155Y006930D01*
X022154Y006026D02*
X022154Y006076D01*
X022155Y006075D02*
X022170Y006078D01*
X022184Y006083D01*
X022197Y006092D01*
X022208Y006103D01*
X022217Y006116D01*
X022222Y006130D01*
X022225Y006145D01*
X022274Y006146D01*
X022275Y006145D01*
X022272Y006124D01*
X022266Y006105D01*
X022257Y006086D01*
X022245Y006069D01*
X022231Y006055D01*
X022214Y006043D01*
X022195Y006034D01*
X022176Y006028D01*
X022155Y006025D01*
X022155Y006034D01*
X022174Y006037D01*
X022192Y006042D01*
X022209Y006050D01*
X022225Y006061D01*
X022239Y006075D01*
X022250Y006091D01*
X022258Y006108D01*
X022263Y006126D01*
X022266Y006145D01*
X022257Y006145D01*
X022254Y006125D01*
X022248Y006107D01*
X022238Y006090D01*
X022226Y006074D01*
X022210Y006062D01*
X022193Y006052D01*
X022175Y006046D01*
X022155Y006043D01*
X022155Y006052D01*
X022173Y006055D01*
X022190Y006060D01*
X022205Y006069D01*
X022219Y006081D01*
X022231Y006095D01*
X022240Y006110D01*
X022245Y006127D01*
X022248Y006145D01*
X022239Y006145D01*
X022236Y006127D01*
X022229Y006109D01*
X022219Y006094D01*
X022206Y006081D01*
X022191Y006071D01*
X022173Y006064D01*
X022155Y006061D01*
X022155Y006070D01*
X022171Y006073D01*
X022187Y006079D01*
X022200Y006088D01*
X022212Y006100D01*
X022221Y006113D01*
X022227Y006129D01*
X022230Y006145D01*
M02*
