%
M48
M72
T01C0.0315
T02C0.0320
T03C0.0394
T04C0.1260
%
T01
X19500Y3770
X20500Y3770
X21500Y3770
X22500Y3770
X23500Y3770
X23500Y13500
X22500Y13500
X21500Y13500
X20500Y13500
X19500Y13500
X16500Y17500
X15500Y17500
X14500Y17500
X13500Y17500
X12500Y17500
X11500Y17500
X10500Y17500
X9500Y17500
X8500Y17500
T02
X18500Y18500
X18500Y17500
X21500Y17500
X21500Y18500
T03
X7900Y20500
X8900Y20500
X9900Y20500
X10900Y20500
X11900Y20500
X12900Y20500
X13900Y20500
X14900Y20500
X15900Y20500
X16900Y20500
X18500Y20500
X19500Y20500
X20500Y20500
X21500Y20500
X22500Y20500
X23500Y20500
X24500Y20500
X25500Y20500
X25500Y1500
X24500Y1500
X23500Y1500
X22500Y1500
X21500Y1500
X20500Y1500
X18500Y1500
X17500Y1500
X16500Y1500
X15500Y1500
X14500Y1500
X13500Y1500
X12500Y1500
X11500Y1500
T04
X6000Y1500
X26500Y3500
X26500Y14500
X6500Y20500
M30
