%
M48
M72
T01C0.0236
T02C0.0315
T03C0.0320
T04C0.0350
T05C0.0394
T06C0.0400
T07C0.0520
T08C0.1260
T09C0.1300
%
T01
X12000Y19000
X18500Y19500
T02
X9000Y18000
X10000Y18000
X11000Y18000
X12000Y18000
X13000Y18000
X17500Y17500
X18500Y17500
X19500Y17500
X20500Y17500
X21500Y17500
X22500Y17500
X23500Y17500
X24500Y17500
X24500Y12500
X23500Y12500
X22500Y12500
X21500Y12500
X20500Y12500
X19500Y12500
X18500Y12500
X17500Y12500
X19500Y11000
X20500Y11000
X21500Y11000
X22500Y11000
X13000Y8270
X12000Y8270
X11000Y8270
X10000Y8270
X9000Y8270
T03
X17500Y3000
X19500Y3000
X17500Y4500
X19500Y6500
X17500Y7500
X22500Y6500
X25300Y10500
X26700Y10500
T04
X14950Y10850
X14200Y11450
X16400Y13650
X17400Y14350
T05
X7900Y20500
X8900Y20500
X9900Y20500
X10900Y20500
X11900Y20500
X12900Y20500
X13900Y20500
X14900Y20500
X15900Y20500
X16900Y20500
X18500Y20500
X19500Y20500
X20500Y20500
X21500Y20500
X22500Y20500
X23500Y20500
X24500Y20500
X25500Y20500
X25500Y1500
X24500Y1500
X23500Y1500
X22500Y1500
X21500Y1500
X20500Y1500
X18500Y1500
X17500Y1500
X16500Y1500
X15500Y1500
X14500Y1500
X13500Y1500
X12500Y1500
X11500Y1500
T06
X24000Y5500
X24000Y6500
X24000Y7500
T07
X15000Y8000
X15500Y17500
X6000Y18500
X4500Y18500
T08
X6500Y20500
X26500Y14500
X26500Y3500
X6000Y1500
T09
X29900Y6500
M30
